<svg viewBox="0 0 292.33 333.23" xmlns="http://www.w3.org/2000/svg" fill="#011F5B">
  <path d="M91.66,69.27c0,2.13,2.58,2.88,3.36,3.05c0.09,0.02,0.17,0.06,0.25,0.1c4.01,0.45,9.82-0.12,14.89-5.33 c0.34-0.35,0.9-0.36,1.25-0.02c0.35,0.34,0.36,0.9,0.02,1.25c-3.84,3.95-8.61,6-13.92,6c-0.53,0-1.08-0.06-1.62-0.1 c0.04,0.15,0.07,0.31,0.14,0.46c0.18,0.43,0.4,0.81,0.66,1.15c0.53,0.68,1.26,1.2,2.12,1.49c0.62,0.21,1.32,0.32,2.09,0.32 c5.68,0,10.3-2.78,14.08-5.49c2.26-1.6,5.08-4.46,5.88-6.6c0.21-0.57,0.35-1.18,0.41-1.82l-3.97-0.68 c-0.04-0.01-0.07-0.01-0.11-0.02c-0.42-0.13-0.7-0.44-0.76-0.83c-0.12-0.8,0.58-1.28,1.99-2.24c0.41-0.28,0.84-0.57,1.25-0.88 c2.08-1.55,3.78-2.77,4.73-3.45c-1.1-1.23-2.03-2.65-2.81-3.82c-0.57-0.86-1.06-1.6-1.48-2.09c-0.03-0.03-0.06-0.07-0.09-0.11 c-1.97-2.14-5.44-3.38-8.25-1.63c-1.14,0.71-2.13,1.59-3.19,2.52c-0.85,0.75-1.73,1.53-2.7,2.21c-0.38,0.27-0.89,0.2-1.19-0.16 c-0.29-0.36-0.26-0.88,0.07-1.2c0.13-0.12,0.28-0.26,0.45-0.42c1.29-1.21,4.3-4.04,4.3-6.05c0-4.65-4.45-12.29-6.03-14.85 c-3.09,2.92-5.4,7.23-7.34,11.1c-1.55,3.09-2.65,5.91-3.37,8.63l-0.07,0.28c-0.53,2.01-1.64,6.2-0.18,7.77 c0.2,0.21,0.46,0.4,0.73,0.61c0.26,0.19,0.53,0.39,0.79,0.64c3.03,2.87,0.92,5.36-0.62,7.18C92.51,67.31,91.66,68.31,91.66,69.27 z M100.27,60.01c-0.46-1.83,1.34-2.64,2.74-2.64c0.97,0,1.9,0.25,2.81,1.01c0.3,0.25,0.58,0.5,0.83,0.74 c0.64,0.61,0.6,1.63-0.08,2.19c-0.69,0.56-1.47,1.12-1.96,1.45c-1.13,0.77-3.07,2.19-4.41,1.08 C99.52,63.26,100.86,62.34,100.27,60.01z"/>
  <path d="M57.73,62.67c0.86,0.28,1.75,0.56,2.62,0.82c2.57,0.78,5.25,0.79,7.83,0.8c1.69,0.01,3.3,0.01,4.77,0.24 V28.54c-0.92-0.17-1.8-0.41-2.61-0.76c-1-0.42-1.91-1-2.79-1.55c-1.88-1.19-3.66-2.3-6.44-2.3c-2.28,0-4.52,0.9-6.49,1.7 c-1.34,0.54-2.53,1.01-3.63,1.19v34.09c0.03,0,0.07,0.01,0.1,0.01C52.74,61.07,55.06,61.81,57.73,62.67z"/>
  <path d="M124.36,29.34c5.71-0.21,14,0.69,21.05,6.13c4.39,3.38,8,7.58,11.5,11.63c0.91,1.06,1.86,2.15,2.8,3.21 c2.8,3.15,5.52,5.94,8.22,8.43c0.49-1.59,0.5-2.96-0.04-4.04c-0.91-1.81-3.03-2.33-3.05-2.33c-0.23-0.05-0.43-0.2-0.54-0.41 c-0.11-0.21-0.13-0.45-0.05-0.68c0.31-0.83,1-3.25,0.56-4.46c-0.38-1.04-2.33-1.47-2.99-1.54c-0.26-0.03-0.49-0.18-0.62-0.4 c-0.13-0.22-0.15-0.5-0.05-0.74c0.27-0.66,0.84-2.6,0.17-3.64c-1.3-2.02-4.73-1.04-4.76-1.03c-0.29,0.09-0.61,0-0.83-0.22 c-0.21-0.22-0.29-0.54-0.19-0.83c0.01-0.03,0.99-3.12-0.94-5.09c-2.25-2.3-7.07-0.95-7.12-0.93c-0.29,0.08-0.61,0-0.82-0.22 c-0.21-0.22-0.29-0.54-0.19-0.83c0.03-0.11,0.83-2.67-0.9-3.76c-2.74-1.74-5.88,0.49-5.92,0.51c-0.24,0.17-0.55,0.2-0.81,0.09 c-0.27-0.12-0.45-0.37-0.49-0.66c-0.02-0.14-0.46-3.5-3.42-3.9c-3.19-0.43-6.57,2.86-6.61,2.89c-0.17,0.17-0.4,0.25-0.64,0.24 c-0.24-0.02-0.45-0.13-0.6-0.32c-0.02-0.03-2.27-2.94-5.1-2.79c-2.74,0.12-3.81,2.89-3.82,2.92c-0.1,0.26-0.32,0.45-0.59,0.52 c-0.27,0.06-0.56-0.02-0.76-0.22c-0.03-0.02-2.73-2.61-5.51-1.59c-3.26,1.2-4.33,4.97-4.73,6.61c0.31,0.57,0.64,1.17,0.98,1.81 C114.06,29.83,123.3,29.38,124.36,29.34z"/>
  <path d="M190.55,67.23c-4.82,3.96-11.81,2.29-16.26-0.95c-5.23-3.8-10.43-8.64-15.9-14.8 c-0.95-1.07-1.9-2.17-2.82-3.23c-3.44-3.99-7-8.11-11.24-11.39c-6.64-5.12-14.49-5.96-19.91-5.77 c-3.69,0.13-11.1,1.17-16.06,4.19c1.52,3.16,2.9,6.8,2.9,9.61c0,0.5-0.1,1-0.28,1.5c3.25-1.92,7.07-0.86,9.57,1.3 c1.09-1.72,2.5-2.87,4.05-3.27c1.56-0.4,3.2-0.04,4.72,1.04c3.06,2.16,3.75,2.07,6.71,0.47c1.8-0.97,4.06-0.82,5.91,0.37 c1.8,1.17,2.88,3.11,3.01,5.34c1.5-0.18,4.32-0.26,6.18,1.32c1.77,1.5,2.07,3.86,2.07,5.29c1.39-0.26,3.69-0.36,5.22,1.35 c1.29,1.44,1.35,3.24,1.39,4.55c0.01,0.45,0.04,1.13,0.14,1.31c0.15,0.08,0.45,0.17,0.74,0.26c1.56,0.48,4.81,1.49,4.25,6.01 c-0.05,0.42-0.41,0.72-0.82,0.72c-0.03,0-0.07,0-0.1-0.01c-0.45-0.05-0.77-0.47-0.72-0.92c0.39-3.15-1.47-3.73-3.11-4.24 c-0.43-0.13-0.81-0.25-1.11-0.42c-0.87-0.5-0.91-1.56-0.94-2.67c-0.04-1.17-0.08-2.51-0.97-3.5c-1.53-1.71-4.57-0.6-4.6-0.59 c-0.27,0.1-0.58,0.05-0.81-0.13c-0.23-0.19-0.34-0.48-0.29-0.77c0-0.03,0.49-3.36-1.43-4.99c-1.63-1.38-4.71-1.05-5.76-0.8 c-0.26,0.06-0.52-0.01-0.72-0.18c-0.2-0.17-0.31-0.43-0.29-0.69c0.15-2.06-0.67-3.84-2.26-4.87c-1.34-0.87-2.96-0.99-4.23-0.3 c-3.46,1.87-4.82,1.99-8.45-0.58c-1.13-0.8-2.26-1.07-3.36-0.79c-1.24,0.31-2.39,1.34-3.28,2.9c0.41,0.53,0.85,1.19,1.33,1.92 c0.94,1.43,2.01,3.05,3.29,4.29c0.19,0.18,0.29,0.44,0.27,0.7c-0.02,0.26-0.16,0.5-0.37,0.65c-0.02,0.02-2.31,1.63-5.53,4.02 c-0.43,0.32-0.9,0.64-1.31,0.92c-0.08,0.05-0.16,0.11-0.24,0.16l2.84,0.48c1.96-1.08,4.1-1.54,6.35-1.54 c6.92,0,14.79,4.31,20.96,7.68c1.19,0.65,2.31,1.26,3.31,1.78c10.53,5.44,20.9,10.17,32.06,8.19c0.07-0.02,9.02-1.84,13.47-8.97 c2.74-4.4,3.25-9.92,1.51-16.4c-0.19-0.7-0.37-1.36-0.54-2c-1.85-6.74-2.9-10.57,0.37-18.96c-3.82-0.24-6.12,1.03-7.42,2.2 c-2.5,2.26-3.67,6.21-3.48,11.72c0.02,0.46-0.33,0.86-0.79,0.91c-3.43,0.36-6.31,1.97-7.7,4.32c-1.35,2.28-1.43,5.23-0.22,8.79 c1.7-2.32,4.58-5.45,8.27-4.64c2.3,0.51,4.02,2.29,4.62,4.76C193.42,62.66,192.53,65.6,190.55,67.23z"/>
  <path d="M232,63.49c0.88-0.27,1.76-0.55,2.62-0.82c2.67-0.85,5-1.6,6.64-1.74c0.06-0.01,0.13-0.02,0.2-0.02V26.83 c-1.13-0.16-2.36-0.65-3.74-1.21c-1.98-0.8-4.21-1.7-6.49-1.7c-2.78,0-4.56,1.12-6.44,2.3c-0.88,0.55-1.79,1.13-2.79,1.55 c-0.81,0.35-1.68,0.59-2.59,0.75v35.98c1.47-0.23,3.08-0.23,4.77-0.24C226.76,64.28,229.43,64.27,232,63.49z"/>
  <path d="M210.24,64.86c0.21,0.31,0.56,0.58,0.93,0.87c0.77,0.6,1.74,1.36,1.74,2.78v3.77h29.48h0.02h29.48v-3.77 c0-1.42,0.96-2.17,1.74-2.78c0.37-0.29,0.73-0.57,0.93-0.87c0.2-0.3,0.3-0.64,0.29-1l0-0.03l0-0.03c0.01-0.37-0.09-0.7-0.29-1 c-0.21-0.31-0.56-0.58-0.93-0.88c-0.77-0.6-1.74-1.36-1.74-2.78V42.21c0-1.42,0.96-2.17,1.74-2.78c0.37-0.29,0.73-0.57,0.93-0.88 c0.2-0.3,0.3-0.64,0.29-1l0-0.03l0-0.03c0.01-0.37-0.09-0.7-0.29-1c-0.21-0.31-0.56-0.58-0.93-0.88 c-0.77-0.6-1.74-1.36-1.74-2.78v-3.93c-0.04,0-0.08,0-0.13,0c-1.53,0-3.01-0.01-4.42-0.13v38.95h0h-21.46 c-0.41,1.54-1.8,2.67-3.47,2.67c-1.66,0-3.06-1.14-3.47-2.67h-21.46V28.79c-1.41,0.12-2.9,0.13-4.44,0.13c-0.04,0-0.09,0-0.13,0 v3.93c0,1.42-0.96,2.17-1.74,2.78c-0.37,0.29-0.73,0.57-0.93,0.88c-0.2,0.3-0.3,0.64-0.29,1l0,0.03l0,0.03 c-0.01,0.37,0.09,0.7,0.29,1c0.21,0.31,0.56,0.58,0.93,0.88c0.77,0.6,1.74,1.36,1.74,2.78v16.95c0,1.42-0.96,2.17-1.74,2.78 c-0.37,0.29-0.73,0.57-0.93,0.88c-0.2,0.3-0.3,0.64-0.29,1l0,0.03l0,0.03C209.94,64.22,210.04,64.56,210.24,64.86z"/>
  <path d="M39.55,63.49c0.88-0.27,1.76-0.55,2.62-0.82c2.67-0.85,5-1.6,6.64-1.74c0.06-0.01,0.13-0.02,0.2-0.02V26.83 c-1.13-0.16-2.36-0.65-3.74-1.21c-1.98-0.8-4.21-1.7-6.49-1.7c-2.78,0-4.56,1.12-6.44,2.3c-0.88,0.55-1.79,1.13-2.79,1.55 c-0.81,0.35-1.68,0.59-2.59,0.75v35.98c1.47-0.23,3.08-0.23,4.77-0.24C34.3,64.28,36.98,64.27,39.55,63.49z"/>
  <path d="M250.19,62.67c0.86,0.28,1.75,0.56,2.62,0.82c2.57,0.78,5.25,0.79,7.83,0.8c1.69,0.01,3.3,0.01,4.77,0.24 V28.54c-0.92-0.17-1.8-0.41-2.61-0.76c-1-0.42-1.91-1-2.79-1.55c-1.88-1.19-3.66-2.3-6.44-2.3c-2.28,0-4.52,0.9-6.49,1.7 c-1.34,0.54-2.53,1.01-3.63,1.19v34.09c0.03,0,0.07,0.01,0.1,0.01C245.19,61.07,247.52,61.81,250.19,62.67z"/>
  <circle cx="146.17" cy="149.9" r="24.08"/>
  <path d="M17.79,64.86c0.21,0.31,0.56,0.58,0.93,0.87c0.77,0.6,1.74,1.36,1.74,2.78v3.77h29.48h0.02h29.48v-3.77 c0-1.42,0.96-2.17,1.74-2.78c0.37-0.29,0.73-0.57,0.93-0.87c0.2-0.3,0.3-0.64,0.29-1l0-0.03l0-0.03c0.01-0.37-0.09-0.7-0.29-1 c-0.21-0.31-0.56-0.58-0.93-0.88c-0.77-0.6-1.74-1.36-1.74-2.78V42.21c0-1.42,0.96-2.17,1.74-2.78c0.37-0.29,0.73-0.57,0.93-0.88 c0.2-0.3,0.3-0.64,0.29-1l0-0.03l0-0.03c0.01-0.37-0.09-0.7-0.29-1c-0.21-0.31-0.56-0.58-0.93-0.88 c-0.77-0.6-1.74-1.36-1.74-2.78v-3.93c-0.04,0-0.08,0-0.13,0c-1.53,0-3.01-0.01-4.42-0.13v38.95h0H53.42 c-0.41,1.54-1.8,2.67-3.47,2.67c-1.66,0-3.06-1.14-3.47-2.67H25.02V28.79c-1.41,0.12-2.9,0.13-4.44,0.13c-0.04,0-0.09,0-0.13,0 v3.93c0,1.42-0.96,2.17-1.74,2.78c-0.37,0.29-0.73,0.57-0.93,0.88c-0.2,0.3-0.3,0.64-0.29,1l0,0.03l0,0.03 c-0.01,0.37,0.09,0.7,0.29,1c0.21,0.31,0.56,0.58,0.93,0.88c0.77,0.6,1.74,1.36,1.74,2.78v16.95c0,1.42-0.96,2.17-1.74,2.78 c-0.37,0.29-0.73,0.57-0.93,0.88c-0.2,0.3-0.3,0.64-0.29,1l0,0.03l0,0.03C17.49,64.22,17.59,64.56,17.79,64.86z"/>
  <path d="M282.88,93.93H9.46c0,27.47,0,51.06,0,51.82c-0.08,26.02,6.18,48.97,15.58,68.75L146.17,97.67L267.31,214.5 c9.4-19.78,15.66-42.73,15.58-68.75C282.88,144.98,282.88,121.4,282.88,93.93z"/>
  <path d="M292.33,0H0c0,0,0,144.95,0,145.72c-0.19,63.43,34.96,109.38,64.48,136.75 c32.47,30.1,68.27,47.46,80.23,50.07l1.45,0.31l1.46-0.31c11.95-2.6,47.75-19.96,80.22-50.06 c29.52-27.37,64.68-73.32,64.48-136.75C292.32,143.91,292.33,0,292.33,0z M286.79,145.74c0.19,61.43-34,106.05-62.71,132.67 c-31.3,29.02-66.55,46.3-77.63,48.71l-0.29,0.06l-0.29-0.06c-11.07-2.41-46.32-19.69-77.62-48.71 c-28.71-26.62-62.9-71.24-62.71-132.67c0-1.84,0-140.19,0-140.19h281.24C286.79,5.55,286.78,143.89,286.79,145.74z"/>
  <circle cx="211.6" cy="209.66" r="24.09"/>
  <circle cx="80.74" cy="209.66" r="24.09"/>
  <path d="M68.53,273.3c0.8,0.76,1.59,1.51,2.39,2.24c32.52,30.15,66.23,45.35,75.26,47.63 c9.03-2.28,42.73-17.48,75.26-47.63c0.79-0.73,1.59-1.48,2.39-2.24l-77.64-82.43L68.53,273.3z"/>
</svg>
